<svg width="50" height="49" viewBox="0 0 50 49" fill="none" xmlns="http://www.w3.org/2000/svg">
<path d="M45.6897 5.17236H41.3793V3.44823C41.3793 2.21631 40.722 1.07788 39.6552 0.461823C38.5884 -0.153941 37.2737 -0.153941 36.2069 0.461823C35.1401 1.07797 34.4828 2.2164 34.4828 3.44823V5.17236H28.4483V3.44823C28.4483 2.21631 27.7909 1.07788 26.7241 0.461823C25.6573 -0.153941 24.3427 -0.153941 23.2759 0.461823C22.2091 1.07797 21.5517 2.2164 21.5517 3.44823V5.17236H15.5172V3.44823C15.5172 2.21631 14.8599 1.07788 13.7931 0.461823C12.7263 -0.153941 11.4116 -0.153941 10.3448 0.461823C9.27803 1.07797 8.62069 2.2164 8.62069 3.44823V5.17236H4.31034C3.16768 5.17352 2.07202 5.62841 1.26384 6.43621C0.45604 7.24439 0.00118227 8.34005 0 9.48271V43.9655C0.00115458 45.1081 0.45605 46.2038 1.26384 47.012C2.07203 47.8198 3.16768 48.2746 4.31034 48.2758H45.6897C46.8323 48.2747 47.928 47.8198 48.7362 47.012C49.544 46.2038 49.9988 45.1081 50 43.9655V9.48271C49.9988 8.34005 49.5439 7.24438 48.7362 6.43621C47.928 5.6284 46.8323 5.17355 45.6897 5.17236ZM36.2069 3.44823C36.2069 2.83208 36.5356 2.26291 37.069 1.95502C37.6024 1.64714 38.2597 1.64714 38.7931 1.95502C39.3265 2.26291 39.6552 2.8321 39.6552 3.44823V8.62064C39.6552 9.23679 39.3265 9.80596 38.7931 10.1138C38.2597 10.4217 37.6024 10.4217 37.069 10.1138C36.5356 9.80596 36.2069 9.23677 36.2069 8.62064V3.44823ZM23.2759 3.44823C23.2759 2.83208 23.6045 2.26291 24.1379 1.95502C24.6713 1.64714 25.3287 1.64714 25.8621 1.95502C26.3955 2.26291 26.7241 2.8321 26.7241 3.44823V8.62064C26.7241 9.23679 26.3955 9.80596 25.8621 10.1138C25.3287 10.4217 24.6713 10.4217 24.1379 10.1138C23.6045 9.80596 23.2759 9.23677 23.2759 8.62064V3.44823ZM10.3448 3.44823C10.3448 2.83208 10.6735 2.26291 11.2069 1.95502C11.7403 1.64714 12.3976 1.64714 12.931 1.95502C13.4644 2.26291 13.7931 2.8321 13.7931 3.44823V8.62064C13.7931 9.23679 13.4644 9.80596 12.931 10.1138C12.3976 10.4217 11.7403 10.4217 11.2069 10.1138C10.6735 9.80596 10.3448 9.23677 10.3448 8.62064V3.44823ZM48.2759 43.9655C48.2751 44.6513 48.0022 45.3086 47.5177 45.7935C47.0328 46.2781 46.3754 46.5509 45.6896 46.5517H4.31031C3.62451 46.5509 2.96716 46.2781 2.48224 45.7935C1.9977 45.3086 1.72485 44.6513 1.72408 43.9655V9.48271C1.72485 8.79691 1.9977 8.13956 2.48224 7.65463C2.96715 7.1701 3.6245 6.89724 4.31031 6.89647H8.62066V8.62061C8.62066 9.85253 9.27799 10.991 10.3448 11.607C11.4116 12.2228 12.7263 12.2228 13.7931 11.607C14.8599 10.9909 15.5172 9.85243 15.5172 8.62061V6.89647H21.5517V8.62061C21.5517 9.85253 22.209 10.991 23.2758 11.607C24.3426 12.2228 25.6573 12.2228 26.7241 11.607C27.7909 10.9909 28.4482 9.85243 28.4482 8.62061V6.89647H34.4827V8.62061C34.4827 9.85253 35.1401 10.991 36.2069 11.607C37.2737 12.2228 38.5883 12.2228 39.6551 11.607C40.7219 10.9909 41.3793 9.85243 41.3793 8.62061V6.89647H45.6896C46.3754 6.89724 47.0328 7.1701 47.5177 7.65463C48.0022 8.13955 48.2751 8.7969 48.2759 9.48271V43.9655Z" fill="black"/>
<path d="M42.2414 15.5172H7.7586C7.0728 15.5179 6.41545 15.7908 5.93052 16.2753C5.44599 16.7602 5.17313 17.4176 5.17236 18.1034V40.5172C5.17313 41.203 5.44599 41.8603 5.93052 42.3453C6.41544 42.8298 7.07279 43.1026 7.7586 43.1034H42.2414C42.9272 43.1026 43.5845 42.8298 44.0694 42.3453C44.554 41.8603 44.8268 41.203 44.8276 40.5172V18.1034C44.8268 17.4176 44.554 16.7602 44.0694 16.2753C43.5845 15.7908 42.9272 15.5179 42.2414 15.5172ZM43.1034 40.5172C43.1027 40.9928 42.717 41.3785 42.2414 41.3792H7.7586C7.28293 41.3784 6.8973 40.9928 6.89653 40.5172V18.1034C6.8973 17.6277 7.28293 17.2421 7.7586 17.2413H42.2414C42.717 17.2421 43.1027 17.6277 43.1034 18.1034V40.5172Z" fill="black"/>
<path d="M17.2415 20.6896H12.0691C11.593 20.6896 11.207 21.0756 11.207 21.5516V26.7241C11.207 26.9527 11.2979 27.172 11.4595 27.3337C11.6211 27.4953 11.8405 27.5861 12.0691 27.5861H17.2415C17.4701 27.5861 17.6895 27.4953 17.8511 27.3337C18.0128 27.172 18.1036 26.9527 18.1036 26.7241V21.5516C18.1036 21.323 18.0128 21.1037 17.8511 20.942C17.6895 20.7804 17.4701 20.6896 17.2415 20.6896ZM16.3794 25.862H12.9312V22.4137H16.3794V25.862Z" fill="black"/>
<path d="M27.5862 20.6896H22.4138C21.9378 20.6896 21.5518 21.0756 21.5518 21.5516V26.7241C21.5518 26.9527 21.6426 27.172 21.8042 27.3337C21.9659 27.4953 22.1852 27.5861 22.4138 27.5861H27.5862C27.8148 27.5861 28.0342 27.4953 28.1958 27.3337C28.3575 27.172 28.4483 26.9527 28.4483 26.7241V21.5516C28.4483 21.323 28.3575 21.1037 28.1958 20.942C28.0342 20.7804 27.8148 20.6896 27.5862 20.6896ZM26.7242 25.862H23.2759V22.4137H26.7242V25.862Z" fill="black"/>
<path d="M37.931 20.6896H32.7586C32.2825 20.6896 31.8965 21.0756 31.8965 21.5516V26.7241C31.8965 26.9527 31.9873 27.172 32.1489 27.3337C32.3106 27.4953 32.53 27.5861 32.7586 27.5861H37.931C38.1596 27.5861 38.3789 27.4953 38.5406 27.3337C38.7022 27.172 38.793 26.9527 38.793 26.7241V21.5516C38.793 21.323 38.7022 21.1037 38.5406 20.942C38.3789 20.7804 38.1596 20.6896 37.931 20.6896ZM37.0689 25.862H33.6206V22.4137H37.0689V25.862Z" fill="black"/>
<path d="M17.2415 31.0344H12.0691C11.593 31.0344 11.207 31.4204 11.207 31.8965V37.0689C11.207 37.2975 11.2979 37.5169 11.4595 37.6785C11.6211 37.8401 11.8405 37.931 12.0691 37.931H17.2415C17.4701 37.931 17.6895 37.8401 17.8511 37.6785C18.0128 37.5169 18.1036 37.2975 18.1036 37.0689V31.8965C18.1036 31.6679 18.0128 31.4485 17.8511 31.2869C17.6895 31.1253 17.4701 31.0344 17.2415 31.0344ZM16.3794 36.2068H12.9312V32.7586H16.3794V36.2068Z" fill="black"/>
<path d="M27.5862 31.0344H22.4138C21.9378 31.0344 21.5518 31.4204 21.5518 31.8965V37.0689C21.5518 37.2975 21.6426 37.5169 21.8042 37.6785C21.9659 37.8401 22.1852 37.931 22.4138 37.931H27.5862C27.8148 37.931 28.0342 37.8401 28.1958 37.6785C28.3575 37.5169 28.4483 37.2975 28.4483 37.0689V31.8965C28.4483 31.6679 28.3575 31.4485 28.1958 31.2869C28.0342 31.1253 27.8148 31.0344 27.5862 31.0344ZM26.7242 36.2068H23.2759V32.7586H26.7242V36.2068Z" fill="black"/>
<path d="M37.931 31.0344H32.7586C32.2825 31.0344 31.8965 31.4204 31.8965 31.8965V37.0689C31.8965 37.2975 31.9873 37.5169 32.1489 37.6785C32.3106 37.8401 32.53 37.931 32.7586 37.931H37.931C38.1596 37.931 38.3789 37.8401 38.5406 37.6785C38.7022 37.5169 38.793 37.2975 38.793 37.0689V31.8965C38.793 31.6679 38.7022 31.4485 38.5406 31.2869C38.3789 31.1253 38.1596 31.0344 37.931 31.0344ZM37.0689 36.2068H33.6206V32.7586H37.0689V36.2068Z" fill="black"/>
</svg>
