<svg width="50" height="50" viewBox="0 0 50 50" fill="none" xmlns="http://www.w3.org/2000/svg">
<path d="M24.65 0.00266061C10.9015 0.202488 -0.197318 11.5514 0.00266061 25.35C0.202488 39.1485 11.5514 50.1973 25.35 49.9973C39.1485 49.7975 50.1973 38.4486 49.9973 24.65C49.7975 10.9015 38.4486 -0.197318 24.65 0.00266061ZM25.3001 48.7975C12.2015 48.9976 1.40262 38.4486 1.20264 25.3C1.00246 12.2014 11.5515 1.40251 24.7001 1.20253C37.7987 1.00271 48.6476 11.5514 48.7976 24.7C48.9974 37.7986 38.4487 48.5975 25.3001 48.7975Z" fill="black"/>
<path d="M26.5502 37.6987L25.3003 37.5986V37.2987C25.7502 30.9994 18.5512 27.3997 18.251 27.1997L18.8009 26.0999C19.1009 26.2498 24.8002 29.1495 26.2502 34.3488C27.2002 32.4991 29.0498 30.2993 32.6495 28.6494L33.1496 29.7992C27.5002 32.3491 26.7001 36.4987 26.5502 37.4487V37.6984L26.5502 37.6987Z" fill="black"/>
<path d="M32.699 35.1989H32.3991C29.9995 35.0489 28.7496 33.8489 28.0996 32.7992C26.9997 31.0492 26.8996 28.7995 27.3997 27.4999C28.5996 24.4502 33.5489 21.2505 40.8482 23.7503L41.3483 23.9002L41.2985 24.4003C40.5982 30.4495 36.7988 35.1992 32.699 35.1992L32.699 35.1989ZM35.8488 24.15C31.8994 24.15 29.2493 26.0998 28.5494 27.9997C28.1993 28.8496 28.1993 30.6993 29.1492 32.1493C29.899 33.2991 30.9989 33.8993 32.4989 33.9491C35.9486 34.1489 39.2483 30.0495 39.9981 24.8001C38.4985 24.3 37.0987 24.15 35.8488 24.15Z" fill="black"/>
<path d="M19.0005 34.749C18.4007 34.749 17.7506 34.6991 17.0507 34.4989C11.3513 33.1992 7.95169 25.1499 9.40154 16.5509L9.50163 16.0508H10.0017C15.9009 15.8007 19.7507 17.6005 21.9504 19.1504C24.65 21.0502 26.4 23.7499 26.5998 26.2994C26.7497 28.1491 25.7998 31.1489 23.6502 32.9986C22.65 33.899 21.1501 34.7489 19.0005 34.7489L19.0005 34.749ZM10.5513 17.3009C9.40154 25.0501 12.3511 32.1493 17.3008 33.2991C19.4504 33.7992 21.3004 33.3992 22.8004 32.0992C24.7502 30.3995 25.4501 27.7497 25.35 26.4497C25.0498 22.5501 20.1005 17.1007 10.5516 17.3007L10.5513 17.3009Z" fill="black"/>
</svg>
