<svg width="50" height="45" viewBox="0 0 50 45" fill="none" xmlns="http://www.w3.org/2000/svg">
<path d="M27.6163 0.00199764C27.1089 0.00199764 26.6973 0.413259 26.6973 0.92101C26.6973 1.42833 27.1094 1.84002 27.6163 1.84002C38.9449 1.84002 48.1612 11.0572 48.1612 22.385C48.1612 33.7136 38.9454 42.93 27.6163 42.93C17.3944 42.93 8.92115 35.5907 7.34795 25.6522L13.7132 30.6358L14.8458 29.1863L6.1535 22.384L0 31.548L1.52666 32.5747L5.60886 26.492C7.54161 37.0436 16.6663 44.7677 27.6162 44.7677C39.9581 44.7677 50 34.7263 50 22.3838C49.9996 10.0419 39.959 0 27.6173 0L27.6163 0.00199764Z" fill="black"/>
<path d="M21.4771 30.4075C21.951 30.4075 22.4253 30.2261 22.7868 29.8654L28.9206 23.7317C29.0089 23.6438 29.0878 23.5473 29.1573 23.4426C29.1817 23.4057 29.1985 23.3659 29.2199 23.3277C29.2581 23.2608 29.298 23.1948 29.3275 23.1236C29.3473 23.0755 29.3576 23.0258 29.373 22.9773C29.394 22.9117 29.4185 22.847 29.4322 22.7783C29.4481 22.6964 29.4519 22.6141 29.4575 22.5313C29.4601 22.494 29.4686 22.458 29.4686 22.4194L29.4682 7.87084C29.4682 6.84976 28.6384 6.01868 27.6165 6.01868C26.5946 6.01868 25.7648 6.84977 25.7648 7.87084V21.6498L20.1658 27.2466C19.4453 27.9688 19.4453 29.1438 20.1662 29.8655C20.5286 30.2266 21.0025 30.4071 21.4771 30.4071L21.4771 30.4075ZM27.6169 23.0455C27.2713 23.0455 26.9899 22.7637 26.9899 22.4185V22.1578L27.1743 21.9734C27.2923 21.8546 27.4492 21.7894 27.6169 21.7894C27.7841 21.7894 27.9415 21.855 28.0603 21.9734C28.2117 22.1252 28.2576 22.3344 28.2216 22.5308C28.2134 22.5724 28.2121 22.6162 28.1963 22.6552C28.1654 22.7294 28.1208 22.7997 28.0603 22.8606L28.0565 22.8645C27.9428 22.976 27.788 23.0455 27.6169 23.0455ZM27.6169 7.24426C27.9625 7.24426 28.2439 7.52515 28.2439 7.8708V20.6914C27.8399 20.5529 27.3935 20.5529 26.9895 20.6914L26.9899 7.8719C26.9895 7.52625 27.2717 7.2445 27.6169 7.2445L27.6169 7.24426ZM21.0333 28.1131L25.9452 23.202C26.1283 23.5918 26.4418 23.9053 26.8316 24.0893L21.9213 28.9996C21.6773 29.2436 21.2793 29.2453 21.0336 28.9996C20.7892 28.7564 20.7892 28.3585 21.0332 28.1132L21.0333 28.1131Z" fill="black"/>
<path d="M33.9947 11.3391C34.2713 11.4982 34.5719 11.5732 34.87 11.5732C35.4781 11.5732 36.0695 11.2584 36.3946 10.6954C36.8783 9.8557 36.5893 8.77888 35.7509 8.29517C34.9103 7.81144 33.8352 8.09918 33.3507 8.93886C32.8669 9.77811 33.1559 10.8549 33.9947 11.3391ZM34.4124 9.55124C34.5102 9.38099 34.6899 9.28493 34.8734 9.28493C34.9639 9.28493 35.0548 9.30808 35.1384 9.35697C35.3923 9.5032 35.4798 9.82913 35.3327 10.083C35.1865 10.3377 34.8623 10.4231 34.6067 10.2773C34.3537 10.131 34.2657 9.80426 34.4124 9.55124Z" fill="black"/>
<path d="M39.2491 13.5084C38.3558 14.0243 38.0492 15.1714 38.5647 16.0652C38.9107 16.6647 39.5416 16.9992 40.1891 16.9992C40.5056 16.9992 40.8268 16.9186 41.1206 16.75L41.121 16.7496C42.0143 16.2337 42.321 15.0866 41.8055 14.1928C41.2896 13.3004 40.1432 12.9925 39.2491 13.5084ZM40.5087 15.6882C40.1999 15.8666 39.8036 15.7602 39.6257 15.4519C39.4473 15.1431 39.5536 14.7469 39.862 14.5689C39.9636 14.5106 40.0747 14.4823 40.184 14.4823C40.407 14.4823 40.6253 14.5985 40.7445 14.8052C40.9229 15.1135 40.8161 15.5102 40.5087 15.6882Z" fill="black"/>
<path d="M40.145 22.3856C40.145 23.48 41.0353 24.3703 42.1297 24.3703C43.2245 24.3703 44.1157 23.48 44.1157 22.3856C44.1157 21.2907 43.2254 20.3996 42.1297 20.3996C41.0353 20.3996 40.145 21.2907 40.145 22.3856ZM42.1297 21.6244C42.5482 21.6244 42.8909 21.9662 42.8909 22.3856C42.8909 22.805 42.5491 23.1455 42.1297 23.1455C41.7103 23.1455 41.3694 22.8041 41.3694 22.3856C41.3694 21.967 41.7103 21.6244 42.1297 21.6244Z" fill="black"/>
<path d="M39.1334 31.4602C39.1338 31.4602 39.1338 31.4606 39.1338 31.4606C39.4572 31.6468 39.8161 31.7424 40.1802 31.7424C40.3629 31.7424 40.5464 31.7192 40.7278 31.6699C41.2699 31.525 41.7232 31.1776 42.0023 30.6917C42.2836 30.2063 42.3587 29.6398 42.2137 29.099C42.0688 28.5569 41.7214 28.1041 41.2351 27.8227C40.2295 27.2447 38.9443 27.589 38.367 28.5916C37.7863 29.5939 38.1316 30.8812 39.1334 31.4602ZM39.4276 29.2045C39.5438 29.0016 39.7329 28.8571 39.9576 28.7971C40.1858 28.7358 40.4208 28.7675 40.6215 28.8837C40.8243 29.0012 40.9689 29.1899 41.0297 29.4155C41.0898 29.6411 41.0585 29.8765 40.9414 30.0793C40.8252 30.2822 40.6361 30.4267 40.4101 30.4867C40.1862 30.5468 39.9491 30.5163 39.7462 30.3992C39.5438 30.2817 39.4002 30.0939 39.3388 29.8679C39.2792 29.6432 39.3105 29.4078 39.4276 29.2045Z" fill="black"/>
<path d="M32.9553 36.0612C33.2516 36.5741 33.7293 36.9404 34.3006 37.0935C34.491 37.1445 34.6848 37.1698 34.8773 37.1698C35.2616 37.1698 35.6403 37.069 35.9817 36.8722C36.4946 36.5763 36.8608 36.099 37.0139 35.5278C37.167 34.9566 37.0881 34.3591 36.7926 33.8475C36.1815 32.7887 34.823 32.4268 33.7671 33.0362C32.7083 33.6473 32.345 35.0041 32.9553 36.0612ZM33.9176 34.698C33.9858 34.4432 34.15 34.2301 34.3786 34.098C34.5334 34.0075 34.7032 33.9659 34.8709 33.9659C35.214 33.9659 35.5472 34.1435 35.7299 34.4604C35.8628 34.6898 35.8975 34.9565 35.8294 35.2109C35.7612 35.466 35.5978 35.6787 35.3684 35.8108C35.1385 35.9429 34.8735 35.9785 34.617 35.9103C34.3623 35.8421 34.1492 35.6779 34.0171 35.4493C33.8846 35.2199 33.8494 34.9531 33.9176 34.698Z" fill="black"/>
<path d="M27.6163 34.5704C26.3319 34.5704 25.2881 35.6151 25.2881 36.8986C25.2881 38.1834 26.3327 39.2281 27.6163 39.2281C28.9006 39.2281 29.9445 38.1835 29.9445 36.8986C29.9445 35.6147 28.9002 34.5704 27.6163 34.5704ZM27.6163 38.0034C27.0077 38.0034 26.512 37.5072 26.512 36.8987C26.512 36.2902 27.0068 35.7944 27.6163 35.7944C28.2257 35.7944 28.7206 36.2893 28.7206 36.8987C28.7206 37.5077 28.2253 38.0034 27.6163 38.0034Z" fill="black"/>
<path d="M19.1389 37.0713C19.515 37.2883 19.9331 37.3998 20.3564 37.3998C20.5691 37.3998 20.7822 37.3715 20.9919 37.3157C21.6228 37.1467 22.1489 36.7419 22.4762 36.1771C22.8026 35.6124 22.8892 34.9536 22.7202 34.3237C22.5513 33.6928 22.1464 33.1667 21.5817 32.8394C21.0169 32.513 20.3565 32.4281 19.7282 32.5954C19.0973 32.7643 18.5712 33.1692 18.2439 33.7339C17.9175 34.2987 17.8309 34.9575 17.9999 35.5874C18.1684 36.2174 18.5737 36.7436 19.1389 37.0713ZM19.3061 34.3456C19.4691 34.0638 19.7311 33.8631 20.045 33.7782C20.1501 33.7499 20.2564 33.7366 20.3624 33.7366C20.5734 33.7366 20.7809 33.7923 20.9692 33.9008C21.2509 34.0638 21.4516 34.3258 21.5365 34.6397C21.6206 34.9541 21.5764 35.283 21.4143 35.5643C21.2513 35.8461 20.9893 36.0468 20.6754 36.1317C20.3611 36.2158 20.0334 36.1716 19.7508 36.0095C19.1693 35.6733 18.9695 34.927 19.3061 34.3456Z" fill="black"/>
</svg>
